<?xml version="1.0" standalone="no"?>
<!DOCTYPE svg PUBLIC "-//W3C//DTD SVG 20010904//EN"
 "http://www.w3.org/TR/2001/REC-SVG-20010904/DTD/svg10.dtd">
<svg version="1.0" xmlns="http://www.w3.org/2000/svg"
 width="512.000000pt" height="512.000000pt" viewBox="0 0 512.000000 512.000000"
 preserveAspectRatio="xMidYMid meet">
<metadata>
Created by potrace 1.14, written by Peter Selinger 2001-2017
</metadata>
<g transform="translate(0.000000,512.000000) scale(0.100000,-0.100000)"
fill="#000000" stroke="none">
<path d="M0 2560 l0 -2560 2560 0 2560 0 0 2560 0 2560 -2560 0 -2560 0 0
-2560z m1760 1400 l0 -600 -600 0 -600 0 0 600 0 600 600 0 600 0 0 -600z
m1400 0 l0 -600 -150 0 -150 0 0 250 0 250 -300 0 -300 0 0 -250 0 -250 -150
0 -150 0 0 600 0 600 600 0 600 0 0 -600z m400 550 l0 -50 50 0 50 0 0 -50 0
-50 50 0 50 0 0 -50 0 -50 50 0 50 0 0 -50 0 -50 50 0 50 0 0 -50 0 -50 50 0
50 0 0 -50 0 -50 50 0 50 0 0 -50 0 -50 50 0 50 0 0 350 0 350 150 0 150 0 0
-600 0 -600 -100 0 -100 0 0 50 0 50 -50 0 -50 0 0 50 0 50 -50 0 -50 0 0 50
0 50 -50 0 -50 0 0 50 0 50 -50 0 -50 0 0 50 0 50 -50 0 -50 0 0 50 0 50 -50
0 -50 0 0 50 0 50 -50 0 -50 0 0 -350 0 -350 -150 0 -150 0 0 600 0 600 100 0
100 0 0 -50z m-2700 -1600 l0 -250 300 0 300 0 0 250 0 250 150 0 150 0 0
-350 0 -350 -50 0 -50 0 0 -50 0 -50 -50 0 -50 0 0 -50 0 -50 -50 0 -50 0 0
-50 0 -50 -50 0 -50 0 0 -50 0 -50 -50 0 -50 0 0 -50 0 -50 -150 0 -150 0 0
50 0 50 50 0 50 0 0 50 0 50 50 0 50 0 0 50 0 50 50 0 50 0 0 50 0 50 50 0 50
0 0 50 0 50 -400 0 -400 0 0 350 0 350 150 0 150 0 0 -250z m2300 -350 l0
-600 -150 0 -150 0 0 250 0 250 -300 0 -300 0 0 -250 0 -250 -150 0 -150 0 0
600 0 600 600 0 600 0 0 -600z m1400 500 l0 -100 -50 0 -50 0 0 -50 0 -50 -50
0 -50 0 0 -50 0 -50 -50 0 -50 0 0 -50 0 -50 -50 0 -50 0 0 -50 0 -50 -50 0
-50 0 0 -50 0 -50 -50 0 -50 0 0 -50 0 -50 -50 0 -50 0 0 -50 0 -50 -50 0 -50
0 0 -50 0 -50 400 0 400 0 0 -100 0 -100 -600 0 -600 0 0 100 0 100 50 0 50 0
0 50 0 50 50 0 50 0 0 50 0 50 50 0 50 0 0 50 0 50 50 0 50 0 0 50 0 50 50 0
50 0 0 50 0 50 50 0 50 0 0 50 0 50 50 0 50 0 0 50 0 50 50 0 50 0 0 50 0 50
-400 0 -400 0 0 100 0 100 600 0 600 0 0 -100z m-2800 -1900 l0 -600 -150 0
-150 0 0 250 0 250 -300 0 -300 0 0 -250 0 -250 -150 0 -150 0 0 600 0 600
600 0 600 0 0 -600z m500 300 l0 -300 50 0 50 0 0 -50 0 -50 50 0 50 0 0 -50
0 -50 100 0 100 0 0 50 0 50 50 0 50 0 0 50 0 50 50 0 50 0 0 300 0 300 150 0
150 0 0 -350 0 -350 -50 0 -50 0 0 -50 0 -50 -50 0 -50 0 0 -50 0 -50 -50 0
-50 0 0 -50 0 -50 -50 0 -50 0 0 -50 0 -50 -50 0 -50 0 0 -50 0 -50 -100 0
-100 0 0 50 0 50 -50 0 -50 0 0 50 0 50 -50 0 -50 0 0 50 0 50 -50 0 -50 0 0
50 0 50 -50 0 -50 0 0 50 0 50 -50 0 -50 0 0 350 0 350 150 0 150 0 0 -300z
m2300 200 l0 -100 -250 0 -250 0 0 -400 0 -400 250 0 250 0 0 -100 0 -100
-600 0 -600 0 0 100 0 100 200 0 200 0 0 400 0 400 -200 0 -200 0 0 100 0 100
600 0 600 0 0 -100z"/>
<path d="M860 4210 l0 -150 300 0 300 0 0 150 0 150 -300 0 -300 0 0 -150z"/>
<path d="M860 3710 l0 -150 300 0 300 0 0 150 0 150 -300 0 -300 0 0 -150z"/>
<path d="M2260 4210 l0 -150 300 0 300 0 0 150 0 150 -300 0 -300 0 0 -150z"/>
<path d="M2260 2810 l0 -150 300 0 300 0 0 150 0 150 -300 0 -300 0 0 -150z"/>
<path d="M860 1410 l0 -150 300 0 300 0 0 150 0 150 -300 0 -300 0 0 -150z"/>
</g>
</svg>
