<?xml version="1.0" standalone="no"?>
<!DOCTYPE svg PUBLIC "-//W3C//DTD SVG 20010904//EN"
 "http://www.w3.org/TR/2001/REC-SVG-20010904/DTD/svg10.dtd">
<svg version="1.0" xmlns="http://www.w3.org/2000/svg"
 width="512.000000pt" height="512.000000pt" viewBox="0 0 512.000000 512.000000"
 preserveAspectRatio="xMidYMid meet">
<metadata>
Created by potrace 1.14, written by Peter Selinger 2001-2017
</metadata>
<g transform="translate(0.000000,512.000000) scale(0.100000,-0.100000)"
fill="#000000" stroke="none">
<path d="M0 2560 l0 -2560 2560 0 2560 0 0 2560 0 2560 -2560 0 -2560 0 0
-2560z m1367 1928 l123 -123 0 -112 0 -113 115 0 115 0 0 -370 0 -370 -605 0
-605 0 0 605 0 605 367 0 368 0 122 -122z m1803 -483 l0 -605 -608 0 -608 0 2
63 c1 34 3 146 3 248 l1 185 351 357 351 357 254 0 254 0 0 -605z m1327 483
l123 -123 0 -482 0 -483 -140 0 -140 0 0 458 c0 251 0 463 0 470 0 9 -73 12
-330 12 l-330 0 0 -470 0 -470 -140 0 -140 0 0 605 0 605 487 0 488 0 122
-122z m-3717 -1563 l0 -235 335 0 335 0 0 235 0 235 135 0 135 0 0 -605 0
-605 -605 0 -605 0 0 135 0 135 470 0 470 0 0 100 0 100 -470 0 -470 0 0 370
0 370 135 0 135 0 0 -235z m2390 -370 l0 -605 -608 0 -607 0 1 68 c2 37 3 148
3 247 l1 181 351 357 351 357 254 0 254 0 0 -605z m1450 477 l0 -128 -416
-339 -415 -340 415 -3 416 -2 0 -135 0 -135 -610 0 -610 0 0 130 0 129 163
132 c89 73 278 225 419 338 l257 206 -420 3 -419 2 0 135 0 135 610 0 610 0 0
-128z m-2900 -1927 l0 -605 -605 0 -605 0 1 248 0 247 352 357 352 358 253 0
252 0 0 -605z m510 382 l0 -222 248 -247 247 -247 80 3 80 2 3 467 2 467 140
0 140 0 0 -605 0 -605 -247 0 -248 1 -362 359 -363 359 0 245 0 246 140 0 140
0 0 -223z m2390 88 l0 -135 -235 0 -235 0 0 -335 0 -335 235 0 235 0 0 -135 0
-135 -610 0 -610 0 0 135 0 135 235 0 235 0 0 335 0 335 -235 0 -235 0 0 135
0 135 610 0 610 0 0 -135z"/>
<path d="M780 4240 l0 -100 215 0 215 0 0 100 0 100 -215 0 -215 0 0 -100z"/>
<path d="M780 3770 l0 -100 335 0 335 0 0 100 0 100 -335 0 -335 0 0 -100z"/>
<path d="M2488 4085 l-258 -255 0 -80 0 -80 333 2 332 3 3 333 2 332 -77 0
-78 -1 -257 -254z"/>
<path d="M2488 2635 l-258 -255 0 -80 0 -80 333 2 332 3 3 333 2 332 -77 0
-78 -1 -257 -254z"/>
<path d="M1037 1182 l-257 -257 0 -78 0 -77 335 0 335 0 0 335 0 335 -78 0
-77 0 -258 -258z"/>
</g>
</svg>
